<?xml version="1.0" encoding="UTF-8" standalone="no"?>
<!-- Created with Inkscape (http://www.inkscape.org/) -->

<svg
   xmlns:dc="http://purl.org/dc/elements/1.1/"
   xmlns:cc="http://creativecommons.org/ns#"
   xmlns:rdf="http://www.w3.org/1999/02/22-rdf-syntax-ns#"
   xmlns:svg="http://www.w3.org/2000/svg"
   xmlns="http://www.w3.org/2000/svg"
   xmlns:sodipodi="http://sodipodi.sourceforge.net/DTD/sodipodi-0.dtd"
   xmlns:inkscape="http://www.inkscape.org/namespaces/inkscape"
   width="540.35431"
   height="358.58267"
   id="svg2"
   version="1.1"
   inkscape:version="0.48.2 r9819"
   sodipodi:docname="fabmoney-interface-0.3.svg">
  <defs
     id="defs4">
    <marker
       inkscape:stockid="TriangleOutS"
       orient="auto"
       refY="0"
       refX="0"
       id="TriangleOutS"
       style="overflow:visible">
      <path
         id="path9608"
         d="m 5.77,0 -8.65,5 0,-10 8.65,5 z"
         style="fill-rule:evenodd;stroke:#000000;stroke-width:1pt;marker-start:none"
         transform="scale(0.2,0.2)"
         inkscape:connector-curvature="0" />
    </marker>
    <marker
       inkscape:stockid="DiamondSstart"
       orient="auto"
       refY="0"
       refX="0"
       id="DiamondSstart"
       style="overflow:visible">
      <path
         id="path9554"
         d="M 0,-7.0710768 -7.0710894,0 0,7.0710589 7.0710462,0 0,-7.0710768 z"
         style="fill-rule:evenodd;stroke:#000000;stroke-width:1pt;marker-start:none"
         transform="matrix(0.2,0,0,0.2,1.2,0)"
         inkscape:connector-curvature="0" />
    </marker>
    <marker
       inkscape:stockid="DotS"
       orient="auto"
       refY="0"
       refX="0"
       id="DotS"
       style="overflow:visible">
      <path
         id="path9527"
         d="m -2.5,-1 c 0,2.76 -2.24,5 -5,5 -2.76,0 -5,-2.24 -5,-5 0,-2.76 2.24,-5 5,-5 2.76,0 5,2.24 5,5 z"
         style="fill-rule:evenodd;stroke:#000000;stroke-width:1pt;marker-start:none;marker-end:none"
         transform="matrix(0.2,0,0,0.2,1.48,0.2)"
         inkscape:connector-curvature="0" />
    </marker>
    <marker
       inkscape:stockid="EmptyTriangleOutL"
       orient="auto"
       refY="0"
       refX="0"
       id="EmptyTriangleOutL"
       style="overflow:visible">
      <path
         id="path13197"
         d="m 5.77,0 -8.65,5 0,-10 8.65,5 z"
         style="fill:#ffffff;fill-rule:evenodd;stroke:#000000;stroke-width:1pt;marker-start:none"
         transform="matrix(0.8,0,0,0.8,-4.8,0)"
         inkscape:connector-curvature="0" />
    </marker>
    <marker
       inkscape:stockid="TriangleOutM"
       orient="auto"
       refY="0"
       refX="0"
       id="TriangleOutM"
       style="overflow:visible">
      <path
         id="path13182"
         d="m 5.77,0 -8.65,5 0,-10 8.65,5 z"
         style="fill-rule:evenodd;stroke:#000000;stroke-width:1pt;marker-start:none"
         transform="scale(0.4,0.4)"
         inkscape:connector-curvature="0" />
    </marker>
    <marker
       inkscape:stockid="TriangleOutL"
       orient="auto"
       refY="0"
       refX="0"
       id="TriangleOutL"
       style="overflow:visible">
      <path
         id="path13179"
         d="m 5.77,0 -8.65,5 0,-10 8.65,5 z"
         style="fill-rule:evenodd;stroke:#000000;stroke-width:1pt;marker-start:none"
         transform="scale(0.8,0.8)"
         inkscape:connector-curvature="0" />
    </marker>
    <marker
       inkscape:stockid="Arrow2Lend"
       orient="auto"
       refY="0"
       refX="0"
       id="Arrow2Lend"
       style="overflow:visible">
      <path
         id="path13057"
         style="font-size:12px;fill-rule:evenodd;stroke-width:0.625;stroke-linejoin:round"
         d="M 8.7185878,4.0337352 -2.2072895,0.01601326 8.7185884,-4.0017078 c -1.7454984,2.3720609 -1.7354408,5.6174519 -6e-7,8.035443 z"
         transform="matrix(-1.1,0,0,-1.1,-1.1,0)"
         inkscape:connector-curvature="0" />
    </marker>
    <marker
       inkscape:stockid="Arrow1Lend"
       orient="auto"
       refY="0"
       refX="0"
       id="Arrow1Lend"
       style="overflow:visible">
      <path
         id="path13039"
         d="M 0,0 5,-5 -12.5,0 5,5 0,0 z"
         style="fill-rule:evenodd;stroke:#000000;stroke-width:1pt;marker-start:none"
         transform="matrix(-0.8,0,0,-0.8,-10,0)"
         inkscape:connector-curvature="0" />
    </marker>
    <marker
       orient="auto"
       markerHeight="3"
       markerWidth="4"
       markerUnits="strokeWidth"
       refY="5"
       refX="10"
       viewBox="0 0 10 10"
       id="ArrowStart">
      <path
         id="path10"
         d="M 10,0 0,5 10,10 z"
         inkscape:connector-curvature="0" />
    </marker>
    <marker
       orient="auto"
       markerHeight="3"
       markerWidth="4"
       markerUnits="strokeWidth"
       refY="5"
       refX="0"
       viewBox="0 0 10 10"
       id="ArrowEnd">
      <path
         id="path7"
         d="M 0,0 10,5 0,10 z"
         inkscape:connector-curvature="0" />
    </marker>
    <inkscape:perspective
       id="perspective55"
       inkscape:persp3d-origin="259.08401 : 237.35 : 1"
       inkscape:vp_z="518.16803 : 356.02499 : 1"
       inkscape:vp_y="0 : 1000 : 0"
       inkscape:vp_x="0 : 356.02499 : 1"
       sodipodi:type="inkscape:persp3d" />
    <marker
       style="overflow:visible"
       id="Arrow1Lend-3"
       refX="0"
       refY="0"
       orient="auto"
       inkscape:stockid="Arrow1Lend">
      <path
         transform="matrix(-0.8,0,0,-0.8,-10,0)"
         style="fill-rule:evenodd;stroke:#000000;stroke-width:1pt;marker-start:none"
         d="M 0,0 5,-5 -12.5,0 5,5 0,0 z"
         id="path4521"
         inkscape:connector-curvature="0" />
    </marker>
  </defs>
  <sodipodi:namedview
     id="base"
     pagecolor="#8c94b0"
     bordercolor="#666666"
     borderopacity="1.0"
     inkscape:pageopacity="0.43529412"
     inkscape:pageshadow="2"
     inkscape:zoom="0.91857281"
     inkscape:cx="362.80983"
     inkscape:cy="1944.0109"
     inkscape:document-units="mm"
     inkscape:current-layer="layer5"
     showgrid="false"
     inkscape:window-width="1440"
     inkscape:window-height="795"
     inkscape:window-x="0"
     inkscape:window-y="0"
     inkscape:window-maximized="1"
     units="mm"
     borderlayer="true"
     inkscape:showpageshadow="false"
     showguides="true"
     inkscape:guide-bbox="true" />
  <metadata
     id="metadata7">
    <rdf:RDF>
      <cc:Work
         rdf:about="">
        <dc:format>image/svg+xml</dc:format>
        <dc:type
           rdf:resource="http://purl.org/dc/dcmitype/StillImage" />
        <dc:title></dc:title>
      </cc:Work>
    </rdf:RDF>
  </metadata>
  <g
     inkscape:groupmode="layer"
     id="layer3"
     inkscape:label="aree_pcb"
     style="display:inline"
     transform="translate(0,4.2520375)" />
  <g
     inkscape:groupmode="layer"
     id="layer4"
     inkscape:label="areee_fabkit+rfid"
     style="display:inline"
     transform="translate(0,4.2520375)" />
  <g
     inkscape:groupmode="layer"
     id="layer7"
     inkscape:label="icons"
     transform="translate(0,4.2520375)" />
  <g
     inkscape:label="laser etching"
     inkscape:groupmode="layer"
     id="layer1"
     transform="translate(0,-693.77946)"
     style="display:inline" />
  <g
     inkscape:groupmode="layer"
     id="layer6"
     inkscape:label="pcb"
     style="display:inline"
     transform="translate(0,4.2520375)">
    <g
       inkscape:label="Layer 1"
       id="layer1-4"
       style="opacity:0.43457947"
       transform="matrix(0,1,1,0,80.519591,-231.61629)" />
    <g
       id="g13111"
       transform="translate(100.91164,-388.80478)">
      <g
         style="opacity:0.43457947"
         id="layer1-5"
         inkscape:label="Layer 1" />
      <g
         inkscape:label="curves"
         id="layer2" />
    </g>
  </g>
  <g
     inkscape:groupmode="layer"
     id="layer5"
     inkscape:label="pcb2"
     style="display:inline"
     transform="translate(0,-172.91326)">
    <g
       id="g7065"
       transform="matrix(-1,0,0,1,-1452.6986,-1264.2313)"
       style="display:inline"
       inkscape:export-filename="/Users/massimo/Desktop/FabAcademy/toptraces.png"
       inkscape:export-xdpi="500"
       inkscape:export-ydpi="500">
      <rect
         transform="scale(-1,1)"
         style="fill:#000000;fill-opacity:1;stroke:none;display:inline"
         id="rect24505"
         width="540.35431"
         height="358.58267"
         x="1452.6986"
         y="-330.25687" />
      <g
         id="g6156">
        <rect
           style="fill:#ffffff;fill-opacity:1;stroke:none"
           id="rect24591"
           width="5.9630594"
           height="6.7016859"
           x="1618.6307"
           y="3.6256578"
           transform="scale(-1,1)" />
        <rect
           y="3.6256578"
           x="1608.6307"
           height="6.7016859"
           width="5.9630594"
           id="rect24593"
           style="fill:#ffffff;fill-opacity:1;stroke:none"
           transform="scale(-1,1)" />
        <rect
           y="-46.374344"
           x="1613.7028"
           height="6.7016859"
           width="5.9630594"
           id="rect24595"
           style="fill:#ffffff;fill-opacity:1;stroke:none"
           transform="scale(-1,1)" />
        <rect
           style="fill:#ffffff;fill-opacity:1;stroke:none"
           id="rect24597"
           width="5.9630594"
           height="6.7016859"
           x="1603.7028"
           y="-46.374344"
           transform="scale(-1,1)" />
        <path
           inkscape:connector-curvature="0"
           id="path24599"
           d="m -1635.7215,3.76528 c 1.7909,0 3.25,1.45908 3.25,3.25 0,1.79092 -1.4591,3.25 -3.25,3.25 -1.7909,0 -3.25,-1.45908 -3.25,-3.25 0,-1.79092 1.4591,-3.25 3.25,-3.25 z m 0,1.8125 c -0.796,0 -1.4375,0.64153 -1.4375,1.4375 0,0.79597 0.6415,1.4375 1.4375,1.4375 0.796,0 1.4375,-0.64153 1.4375,-1.4375 0,-0.79597 -0.6415,-1.4375 -1.4375,-1.4375 z"
           style="fill:#ffffff;fill-opacity:1;stroke:none" />
        <path
           inkscape:connector-curvature="0"
           id="path24601"
           d="m -1644.6903,3.76528 c 1.791,0 3.25,1.45908 3.25,3.25 0,1.79092 -1.459,3.25 -3.25,3.25 -1.7909,0 -3.25,-1.45908 -3.25,-3.25 0,-1.79092 1.4591,-3.25 3.25,-3.25 z m 0,1.8125 c -0.7959,0 -1.4375,0.64153 -1.4375,1.4375 0,0.79597 0.6416,1.4375 1.4375,1.4375 0.796,0 1.4375,-0.64153 1.4375,-1.4375 0,-0.79597 -0.6415,-1.4375 -1.4375,-1.4375 z"
           style="fill:#ffffff;fill-opacity:1;stroke:none" />
        <path
           inkscape:connector-curvature="0"
           id="path24603"
           d="m -1635.7215,-46.23472 c 1.7909,0 3.25,1.45908 3.25,3.25 0,1.79092 -1.4591,3.25 -3.25,3.25 -1.7909,0 -3.25,-1.45908 -3.25,-3.25 0,-1.79092 1.4591,-3.25 3.25,-3.25 z m 0,1.8125 c -0.796,0 -1.4375,0.64153 -1.4375,1.4375 0,0.79597 0.6415,1.4375 1.4375,1.4375 0.796,0 1.4375,-0.64153 1.4375,-1.4375 0,-0.79597 -0.6415,-1.4375 -1.4375,-1.4375 z"
           style="fill:#ffffff;fill-opacity:1;stroke:none" />
        <path
           inkscape:connector-curvature="0"
           id="path24605"
           d="m -1644.6903,-46.23472 c 1.791,0 3.25,1.45908 3.25,3.25 0,1.79092 -1.459,3.25 -3.25,3.25 -1.7909,0 -3.25,-1.45908 -3.25,-3.25 0,-1.79092 1.4591,-3.25 3.25,-3.25 z m 0,1.8125 c -0.7959,0 -1.4375,0.64153 -1.4375,1.4375 0,0.79597 0.6416,1.4375 1.4375,1.4375 0.796,0 1.4375,-0.64153 1.4375,-1.4375 0,-0.79597 -0.6415,-1.4375 -1.4375,-1.4375 z"
           style="fill:#ffffff;fill-opacity:1;stroke:none" />
        <rect
           y="3.6256578"
           x="1946.6307"
           height="6.7016859"
           width="5.9630594"
           id="rect24607"
           style="fill:#ffffff;fill-opacity:1;stroke:none"
           transform="scale(-1,1)" />
        <rect
           style="fill:#ffffff;fill-opacity:1;stroke:none"
           id="rect24609"
           width="5.9630594"
           height="6.7016859"
           x="1936.6307"
           y="3.6256578"
           transform="scale(-1,1)" />
        <rect
           style="fill:#ffffff;fill-opacity:1;stroke:none"
           id="rect24611"
           width="5.9630594"
           height="6.7016859"
           x="1946.4917"
           y="-45.350967"
           transform="scale(-1,1)" />
        <rect
           y="-45.350967"
           x="1936.4917"
           height="6.7016859"
           width="5.9630594"
           id="rect24613"
           style="fill:#ffffff;fill-opacity:1;stroke:none"
           transform="scale(-1,1)" />
        <path
           inkscape:connector-curvature="0"
           id="path24615"
           d="m -1917.7215,3.76528 c 1.791,0 3.25,1.45908 3.25,3.25 0,1.79092 -1.459,3.25 -3.25,3.25 -1.7909,0 -3.25,-1.45908 -3.25,-3.25 0,-1.79092 1.4591,-3.25 3.25,-3.25 z m 0,1.8125 c -0.7959,0 -1.4375,0.64153 -1.4375,1.4375 0,0.79597 0.6416,1.4375 1.4375,1.4375 0.796,0 1.4375,-0.64153 1.4375,-1.4375 0,-0.79597 -0.6415,-1.4375 -1.4375,-1.4375 z"
           style="fill:#ffffff;fill-opacity:1;stroke:none" />
        <path
           inkscape:connector-curvature="0"
           id="path24617"
           d="m -1926.6902,3.76528 c 1.7909,0 3.25,1.45908 3.25,3.25 0,1.79092 -1.4591,3.25 -3.25,3.25 -1.7909,0 -3.25,-1.45908 -3.25,-3.25 0,-1.79092 1.4591,-3.25 3.25,-3.25 z m 0,1.8125 c -0.796,0 -1.4375,0.64153 -1.4375,1.4375 0,0.79597 0.6415,1.4375 1.4375,1.4375 0.7959,0 1.4375,-0.64153 1.4375,-1.4375 0,-0.79597 -0.6416,-1.4375 -1.4375,-1.4375 z"
           style="fill:#ffffff;fill-opacity:1;stroke:none" />
        <path
           inkscape:connector-curvature="0"
           id="path24619"
           d="m -1917.7674,-45.21136 c 1.791,0 3.25,1.45908 3.25,3.25 0,1.79092 -1.459,3.25 -3.25,3.25 -1.7909,0 -3.25,-1.45908 -3.25,-3.25 0,-1.79092 1.4591,-3.25 3.25,-3.25 z m 0,1.8125 c -0.7959,0 -1.4375,0.64153 -1.4375,1.4375 0,0.79597 0.6416,1.4375 1.4375,1.4375 0.796,0 1.4375,-0.64153 1.4375,-1.4375 0,-0.79597 -0.6415,-1.4375 -1.4375,-1.4375 z"
           style="fill:#ffffff;fill-opacity:1;stroke:none" />
        <path
           inkscape:connector-curvature="0"
           id="path24621"
           d="m -1926.7361,-45.21136 c 1.7909,0 3.25,1.45908 3.25,3.25 0,1.79092 -1.4591,3.25 -3.25,3.25 -1.7909,0 -3.25,-1.45908 -3.25,-3.25 0,-1.79092 1.4591,-3.25 3.25,-3.25 z m 0,1.8125 c -0.796,0 -1.4375,0.64153 -1.4375,1.4375 0,0.79597 0.6415,1.4375 1.4375,1.4375 0.796,0 1.4375,-0.64153 1.4375,-1.4375 0,-0.79597 -0.6415,-1.4375 -1.4375,-1.4375 z"
           style="fill:#ffffff;fill-opacity:1;stroke:none" />
        <rect
           style="fill:#ffffff;fill-opacity:1;stroke:none"
           id="rect24623"
           width="5.9630594"
           height="6.7016859"
           x="-1862.0669"
           y="-267.32455" />
        <rect
           y="-267.32455"
           x="-1872.0669"
           height="6.7016859"
           width="5.9630594"
           id="rect24625"
           style="fill:#ffffff;fill-opacity:1;stroke:none" />
        <rect
           y="-304.81769"
           x="-1856.0669"
           height="6.7016859"
           width="5.9630594"
           id="rect24627"
           style="fill:#ffffff;fill-opacity:1;stroke:none" />
        <rect
           style="fill:#ffffff;fill-opacity:1;stroke:none"
           id="rect24629"
           width="5.9630594"
           height="6.7016859"
           x="-1866.0669"
           y="-304.81769" />
        <path
           inkscape:connector-curvature="0"
           id="path24631"
           d="m -1840.3152,-267.26597 c 1.7909,0 3.25,1.42783 3.25,3.21875 0,1.79092 -1.4591,3.25 -3.25,3.25 -1.7909,0 -3.25,-1.45908 -3.25,-3.25 0,-1.79092 1.4591,-3.21875 3.25,-3.21875 z m 0,1.78125 c -0.796,0 -1.4375,0.64153 -1.4375,1.4375 0,0.79597 0.6415,1.46875 1.4375,1.46875 0.796,0 1.4375,-0.67278 1.4375,-1.46875 0,-0.79597 -0.6415,-1.4375 -1.4375,-1.4375 z"
           style="fill:#ffffff;fill-opacity:1;stroke:none" />
        <path
           inkscape:connector-curvature="0"
           id="path24633"
           d="m -1831.3465,-267.26597 c 1.7909,0 3.25,1.42783 3.25,3.21875 0,1.79092 -1.4591,3.25 -3.25,3.25 -1.7909,0 -3.25,-1.45908 -3.25,-3.25 0,-1.79092 1.4591,-3.21875 3.25,-3.21875 z m 0,1.78125 c -0.796,0 -1.4375,0.64153 -1.4375,1.4375 0,0.79597 0.6415,1.46875 1.4375,1.46875 0.796,0 1.4375,-0.67278 1.4375,-1.46875 0,-0.79597 -0.6415,-1.4375 -1.4375,-1.4375 z"
           style="fill:#ffffff;fill-opacity:1;stroke:none" />
        <path
           inkscape:connector-curvature="0"
           id="path24635"
           d="m -1840.3152,-304.42222 c 1.7909,0 3.25,1.42783 3.25,3.21875 0,1.79092 -1.4591,3.25 -3.25,3.25 -1.7909,0 -3.25,-1.45908 -3.25,-3.25 0,-1.79092 1.4591,-3.21875 3.25,-3.21875 z m 0,1.78125 c -0.796,0 -1.4375,0.64153 -1.4375,1.4375 0,0.79597 0.6415,1.46875 1.4375,1.46875 0.796,0 1.4375,-0.67278 1.4375,-1.46875 0,-0.79597 -0.6415,-1.4375 -1.4375,-1.4375 z"
           style="fill:#ffffff;fill-opacity:1;stroke:none" />
        <path
           inkscape:connector-curvature="0"
           id="path24637"
           d="m -1831.3465,-304.42222 c 1.7909,0 3.25,1.42783 3.25,3.21875 0,1.79092 -1.4591,3.25 -3.25,3.25 -1.7909,0 -3.25,-1.45908 -3.25,-3.25 0,-1.79092 1.4591,-3.21875 3.25,-3.21875 z m 0,1.78125 c -0.796,0 -1.4375,0.64153 -1.4375,1.4375 0,0.79597 0.6415,1.46875 1.4375,1.46875 0.796,0 1.4375,-0.67278 1.4375,-1.46875 0,-0.79597 -0.6415,-1.4375 -1.4375,-1.4375 z"
           style="fill:#ffffff;fill-opacity:1;stroke:none" />
        <path
           inkscape:connector-curvature="0"
           id="path24639"
           d="m -1693.5965,-120.20347 c 1.3515,0 2.4375,1.086 2.4375,2.4375 0,1.3515 -1.086,2.4375 -2.4375,2.4375 -1.3515,0 -2.4688,-1.086 -2.4688,-2.4375 0,-1.3515 1.1173,-2.4375 2.4688,-2.4375 z m 0,1.0625 c -0.7523,0 -1.375,0.62269 -1.375,1.375 0,0.75231 0.6227,1.34375 1.375,1.34375 0.7523,0 1.3437,-0.59144 1.3437,-1.34375 0,-0.75231 -0.5914,-1.375 -1.3437,-1.375 z"
           style="fill:#ffffff;fill-opacity:1;stroke:none" />
        <path
           inkscape:connector-curvature="0"
           id="path24641"
           d="m -1693.5965,-127.20347 c 1.3515,0 2.4375,1.086 2.4375,2.4375 0,1.3515 -1.086,2.4375 -2.4375,2.4375 -1.3515,0 -2.4688,-1.086 -2.4688,-2.4375 0,-1.3515 1.1173,-2.4375 2.4688,-2.4375 z m 0,1.0625 c -0.7523,0 -1.375,0.62269 -1.375,1.375 0,0.75231 0.6227,1.34375 1.375,1.34375 0.7523,0 1.3437,-0.59144 1.3437,-1.34375 0,-0.75231 -0.5914,-1.375 -1.3437,-1.375 z"
           style="fill:#ffffff;fill-opacity:1;stroke:none" />
        <path
           inkscape:connector-curvature="0"
           id="path24643"
           d="m -1693.5965,-112.98472 c 1.3515,0 2.4375,1.086 2.4375,2.4375 0,1.3515 -1.086,2.4375 -2.4375,2.4375 -1.3515,0 -2.4688,-1.086 -2.4688,-2.4375 0,-1.3515 1.1173,-2.4375 2.4688,-2.4375 z m 0,1.0625 c -0.7523,0 -1.375,0.62269 -1.375,1.375 0,0.75231 0.6227,1.375 1.375,1.375 0.7523,0 1.3437,-0.62269 1.3437,-1.375 0,-0.75231 -0.5914,-1.375 -1.3437,-1.375 z"
           style="fill:#ffffff;fill-opacity:1;stroke:none" />
        <path
           inkscape:connector-curvature="0"
           id="path24645"
           d="m -1693.5965,-106.01597 c 1.3515,0 2.4375,1.11725 2.4375,2.46875 0,1.3515 -1.086,2.4375 -2.4375,2.4375 -1.3515,0 -2.4688,-1.086 -2.4688,-2.4375 0,-1.3515 1.1173,-2.46875 2.4688,-2.46875 z m 0,1.09375 c -0.7523,0 -1.375,0.62269 -1.375,1.375 0,0.75231 0.6227,1.34375 1.375,1.34375 0.7523,0 1.3437,-0.59144 1.3437,-1.34375 0,-0.75231 -0.5914,-1.375 -1.3437,-1.375 z"
           style="fill:#ffffff;fill-opacity:1;stroke:none" />
        <path
           inkscape:connector-curvature="0"
           id="path24647"
           d="m -1693.5965,-98.92222 c 1.3515,0 2.4375,1.086 2.4375,2.4375 0,1.3515 -1.086,2.4375 -2.4375,2.4375 -1.3515,0 -2.4688,-1.086 -2.4688,-2.4375 0,-1.3515 1.1173,-2.4375 2.4688,-2.4375 z m 0.2812,1.09375 c -0.089,-0.0181 -0.1872,0 -0.2812,0 -0.7523,0 -1.375,0.59144 -1.375,1.34375 0,0.75231 0.6227,1.375 1.375,1.375 0.7523,0 1.3437,-0.62269 1.3437,-1.375 0,-0.65827 -0.4417,-1.21673 -1.0625,-1.34375 z"
           style="fill:#ffffff;fill-opacity:1;stroke:none" />
        <path
           inkscape:connector-curvature="0"
           id="path24649"
           d="m -1746.7528,-120.20347 c 1.3516,0 2.4375,1.086 2.4375,2.4375 0,1.3515 -1.0859,2.4375 -2.4375,2.4375 -1.3514,0 -2.4687,-1.086 -2.4687,-2.4375 0,-1.3515 1.1173,-2.4375 2.4687,-2.4375 z m 0,1.0625 c -0.7523,0 -1.375,0.62269 -1.375,1.375 0,0.75231 0.6227,1.34375 1.375,1.34375 0.7524,0 1.3438,-0.59144 1.3438,-1.34375 0,-0.75231 -0.5914,-1.375 -1.3438,-1.375 z"
           style="fill:#ffffff;fill-opacity:1;stroke:none" />
        <path
           inkscape:connector-curvature="0"
           id="path24651"
           d="m -1746.7528,-127.20347 c 1.3516,0 2.4375,1.086 2.4375,2.4375 0,1.3515 -1.0859,2.4375 -2.4375,2.4375 -1.3514,0 -2.4687,-1.086 -2.4687,-2.4375 0,-1.3515 1.1173,-2.4375 2.4687,-2.4375 z m 0,1.0625 c -0.7523,0 -1.375,0.62269 -1.375,1.375 0,0.75231 0.6227,1.34375 1.375,1.34375 0.7524,0 1.3438,-0.59144 1.3438,-1.34375 0,-0.75231 -0.5914,-1.375 -1.3438,-1.375 z"
           style="fill:#ffffff;fill-opacity:1;stroke:none" />
        <path
           inkscape:connector-curvature="0"
           id="path24653"
           d="m -1746.7528,-112.98472 c 1.3516,0 2.4375,1.086 2.4375,2.4375 0,1.3515 -1.0859,2.4375 -2.4375,2.4375 -1.3514,0 -2.4687,-1.086 -2.4687,-2.4375 0,-1.3515 1.1173,-2.4375 2.4687,-2.4375 z m 0,1.0625 c -0.7523,0 -1.375,0.62269 -1.375,1.375 0,0.75231 0.6227,1.375 1.375,1.375 0.7524,0 1.3438,-0.62269 1.3438,-1.375 0,-0.75231 -0.5914,-1.375 -1.3438,-1.375 z"
           style="fill:#ffffff;fill-opacity:1;stroke:none" />
        <path
           inkscape:connector-curvature="0"
           id="path24655"
           d="m -1746.7528,-106.01597 c 1.3516,0 2.4375,1.11725 2.4375,2.46875 0,1.3515 -1.0859,2.4375 -2.4375,2.4375 -1.3514,0 -2.4687,-1.086 -2.4687,-2.4375 0,-1.3515 1.1173,-2.46875 2.4687,-2.46875 z m 0,1.09375 c -0.7523,0 -1.375,0.62269 -1.375,1.375 0,0.75231 0.6227,1.34375 1.375,1.34375 0.7524,0 1.3438,-0.59144 1.3438,-1.34375 0,-0.75231 -0.5914,-1.375 -1.3438,-1.375 z"
           style="fill:#ffffff;fill-opacity:1;stroke:none" />
        <path
           inkscape:connector-curvature="0"
           id="path24657"
           d="m -1746.7528,-98.92222 c 1.3516,0 2.4375,1.086 2.4375,2.4375 0,1.3515 -1.0859,2.4375 -2.4375,2.4375 -1.3514,0 -2.4687,-1.086 -2.4687,-2.4375 0,-1.3515 1.1173,-2.4375 2.4687,-2.4375 z m 0.25,1.09375 c -0.089,-0.0181 -0.1559,0 -0.25,0 -0.7523,0 -1.375,0.59144 -1.375,1.34375 0,0.75231 0.6227,1.375 1.375,1.375 0.7524,0 1.3438,-0.62269 1.3438,-1.375 0,-0.65827 -0.473,-1.21673 -1.0938,-1.34375 z"
           style="fill:#ffffff;fill-opacity:1;stroke:none" />
        <path
           inkscape:connector-curvature="0"
           id="path24661"
           d="m -1596.7528,-317.48472 c 0.9815,0 1.7813,0.79975 1.7813,1.78125 l 0,6.84375 c 0,0.9815 -0.7998,1.78125 -1.7813,1.78125 l -1.6562,0 c -0.9815,0 -1.7813,-0.79975 -1.7813,-1.78125 l 0,-6.84375 c 0,-0.9815 0.7998,-1.78125 1.7813,-1.78125 l 1.6562,0 z m -0.7812,3.59375 c -0.9851,0 -1.7813,0.82743 -1.7813,1.8125 0,0.98507 0.7962,1.78125 1.7813,1.78125 0.9851,0 1.7812,-0.79618 1.7812,-1.78125 0,-0.98507 -0.7961,-1.8125 -1.7812,-1.8125 z"
           style="fill:#ffffff;fill-opacity:1;stroke:none" />
        <path
           inkscape:connector-curvature="0"
           id="path24663"
           d="m -1605.7528,-317.48472 c 0.9815,0 1.7813,0.79975 1.7813,1.78125 l 0,6.84375 c 0,0.9815 -0.7998,1.78125 -1.7813,1.78125 l -1.6562,0 c -0.9815,0 -1.7813,-0.79975 -1.7813,-1.78125 l 0,-6.84375 c 0,-0.9815 0.7998,-1.78125 1.7813,-1.78125 l 1.6562,0 z m -0.7812,3.59375 c -0.9851,0 -1.7813,0.82743 -1.7813,1.8125 0,0.98507 0.7962,1.78125 1.7813,1.78125 0.9851,0 1.7812,-0.79618 1.7812,-1.78125 0,-0.98507 -0.7961,-1.8125 -1.7812,-1.8125 z"
           style="fill:#ffffff;fill-opacity:1;stroke:none" />
        <path
           inkscape:connector-curvature="0"
           id="path24665"
           d="m -1721.159,-317.48472 c 0.9815,0 1.75,0.79975 1.75,1.78125 l 0,6.84375 c 0,0.9815 -0.7685,1.78125 -1.75,1.78125 l -1.6875,0 c -0.9815,0 -1.75,-0.79975 -1.75,-1.78125 l 0,-6.84375 c 0,-0.9815 0.7685,-1.78125 1.75,-1.78125 l 1.6875,0 z m -0.7813,3.59375 c -0.985,0 -1.7812,0.82743 -1.7812,1.8125 0,0.98507 0.7962,1.78125 1.7812,1.78125 0.9851,0 1.7813,-0.79618 1.7813,-1.78125 0,-0.98507 -0.7962,-1.8125 -1.7813,-1.8125 z"
           style="fill:#ffffff;fill-opacity:1;stroke:none" />
        <path
           inkscape:connector-curvature="0"
           id="path24667"
           d="m -1730.159,-317.48472 c 0.9815,0 1.7812,0.79975 1.7812,1.78125 l 0,6.84375 c 0,0.9815 -0.7997,1.78125 -1.7812,1.78125 l -1.6563,0 c -0.9815,0 -1.7812,-0.79975 -1.7812,-1.78125 l 0,-6.84375 c 0,-0.9815 0.7997,-1.78125 1.7812,-1.78125 l 1.6563,0 z m -0.7813,3.59375 c -0.985,0 -1.7812,0.82743 -1.7812,1.8125 0,0.98507 0.7962,1.78125 1.7812,1.78125 0.9851,0 1.7813,-0.79618 1.7813,-1.78125 0,-0.98507 -0.7962,-1.8125 -1.7813,-1.8125 z"
           style="fill:#ffffff;fill-opacity:1;stroke:none" />
        <path
           inkscape:connector-curvature="0"
           id="path24669"
           d="m -1739.1278,-317.48472 c 0.9815,0 1.75,0.79975 1.75,1.78125 l 0,6.84375 c 0,0.9815 -0.7685,1.78125 -1.75,1.78125 l -1.6875,0 c -0.9815,0 -1.7812,-0.79975 -1.7812,-1.78125 l 0,-6.84375 c 0,-0.9815 0.7997,-1.78125 1.7812,-1.78125 l 1.6875,0 z m -0.7812,3.59375 c -0.9851,0 -1.8125,0.82743 -1.8125,1.8125 0,0.98507 0.8274,1.78125 1.8125,1.78125 0.9851,0 1.7812,-0.79618 1.7812,-1.78125 0,-0.98507 -0.7961,-1.8125 -1.7812,-1.8125 z"
           style="fill:#ffffff;fill-opacity:1;stroke:none" />
        <path
           inkscape:connector-curvature="0"
           id="path24671"
           d="m -1748.0965,-317.48472 c 0.9815,0 1.7812,0.79975 1.7812,1.78125 l 0,6.84375 c 0,0.9815 -0.7997,1.78125 -1.7812,1.78125 l -1.6563,0 c -0.9815,0 -1.7812,-0.79975 -1.7812,-1.78125 l 0,-6.84375 c 0,-0.9815 0.7997,-1.78125 1.7812,-1.78125 l 1.6563,0 z m -0.7813,3.59375 c -0.985,0 -1.7812,0.82743 -1.7812,1.8125 0,0.98507 0.7962,1.78125 1.7812,1.78125 0.9851,0 1.7813,-0.79618 1.7813,-1.78125 0,-0.98507 -0.7962,-1.8125 -1.7813,-1.8125 z"
           style="fill:#ffffff;fill-opacity:1;stroke:none" />
        <path
           inkscape:connector-curvature="0"
           id="path24673"
           d="m -1878.8465,-317.48472 c 0.9815,0 1.7813,0.79975 1.7813,1.78125 l 0,6.84375 c 0,0.9815 -0.7998,1.78125 -1.7813,1.78125 l -1.6562,0 c -0.9815,0 -1.7813,-0.79975 -1.7813,-1.78125 l 0,-6.84375 c 0,-0.9815 0.7998,-1.78125 1.7813,-1.78125 l 1.6562,0 z m -0.7812,3.59375 c -0.9851,0 -1.7813,0.82743 -1.7813,1.8125 0,0.98507 0.7962,1.78125 1.7813,1.78125 0.9851,0 1.7812,-0.79618 1.7812,-1.78125 0,-0.98507 -0.7961,-1.8125 -1.7812,-1.8125 z"
           style="fill:#ffffff;fill-opacity:1;stroke:none" />
        <path
           inkscape:connector-curvature="0"
           id="path24675"
           d="m -1887.8465,-317.48472 c 0.9815,0 1.7813,0.79975 1.7813,1.78125 l 0,6.84375 c 0,0.9815 -0.7998,1.78125 -1.7813,1.78125 l -1.6562,0 c -0.9815,0 -1.7813,-0.79975 -1.7813,-1.78125 l 0,-6.84375 c 0,-0.9815 0.7998,-1.78125 1.7813,-1.78125 l 1.6562,0 z m -0.7812,3.59375 c -0.9851,0 -1.7813,0.82743 -1.7813,1.8125 0,0.98507 0.7962,1.78125 1.7813,1.78125 0.9851,0 1.7812,-0.79618 1.7812,-1.78125 0,-0.98507 -0.7961,-1.8125 -1.7812,-1.8125 z"
           style="fill:#ffffff;fill-opacity:1;stroke:none" />
        <path
           inkscape:connector-curvature="0"
           id="path24677"
           d="m -1896.784,-317.48472 c 0.9815,0 1.7813,0.79975 1.7813,1.78125 l 0,6.84375 c 0,0.9815 -0.7998,1.78125 -1.7813,1.78125 l -1.6562,0 c -0.9815,0 -1.7813,-0.79975 -1.7813,-1.78125 l 0,-6.84375 c 0,-0.9815 0.7998,-1.78125 1.7813,-1.78125 l 1.6562,0 z m -0.7812,3.59375 c -0.9851,0 -1.7813,0.82743 -1.7813,1.8125 0,0.98507 0.7962,1.78125 1.7813,1.78125 0.9851,0 1.7812,-0.79618 1.7812,-1.78125 0,-0.98507 -0.7961,-1.8125 -1.7812,-1.8125 z"
           style="fill:#ffffff;fill-opacity:1;stroke:none" />
        <path
           inkscape:connector-curvature="0"
           id="path24679"
           d="m -1869.8777,-317.48472 c 0.9815,0 1.7812,0.79975 1.7812,1.78125 l 0,6.84375 c 0,0.9815 -0.7997,1.78125 -1.7812,1.78125 l -1.6563,0 c -0.9815,0 -1.7812,-0.79975 -1.7812,-1.78125 l 0,-6.84375 c 0,-0.9815 0.7997,-1.78125 1.7812,-1.78125 l 1.6563,0 z m -0.7813,3.59375 c -0.985,0 -1.7812,0.82743 -1.7812,1.8125 0,0.98507 0.7962,1.78125 1.7812,1.78125 0.9851,0 1.7813,-0.79618 1.7813,-1.78125 0,-0.98507 -0.7962,-1.8125 -1.7813,-1.8125 z"
           style="fill:#ffffff;fill-opacity:1;stroke:none" />
        <path
           style="fill:none;stroke:#ffffff;stroke-width:2.83464575;stroke-linecap:butt;stroke-linejoin:miter;stroke-miterlimit:4;stroke-opacity:1;stroke-dasharray:none"
           d="m -1740.2007,-309.05284 0,170.28887 -4.5485,0"
           id="path24681"
           inkscape:connector-curvature="0"
           sodipodi:nodetypes="ccc" />
        <path
           sodipodi:nodetypes="ccc"
           inkscape:connector-curvature="0"
           id="path24683"
           d="m -1597.7191,-308.97915 0,316.11025 -13.8053,0"
           style="fill:none;stroke:#ffffff;stroke-width:2.83464575;stroke-linecap:butt;stroke-linejoin:miter;stroke-miterlimit:4;stroke-opacity:1;stroke-dasharray:none" />
        <path
           sodipodi:nodetypes="cccc"
           inkscape:connector-curvature="0"
           id="path24685"
           d="m -1949.6772,-44.01972 c 0,-84.97733 0,-171.38737 0,-256.3647 l 61.26,0 0,-10.13101"
           style="fill:none;stroke:#ffffff;stroke-width:2.83464575;stroke-linecap:butt;stroke-linejoin:miter;stroke-miterlimit:4;stroke-opacity:1;stroke-dasharray:none" />
        <path
           sodipodi:nodetypes="cccc"
           inkscape:connector-curvature="0"
           id="path24687"
           d="m -1949.9714,7.44268 -7.9733,0 c 0,-111.02093 0,-208.04185 0,-319.06278 l 57.7934,0"
           style="fill:none;stroke:#ffffff;stroke-width:2.83464575;stroke-linecap:butt;stroke-linejoin:miter;stroke-miterlimit:4;stroke-opacity:1;stroke-dasharray:none" />
        <path
           sodipodi:nodetypes="ccc"
           inkscape:connector-curvature="0"
           id="path24689"
           d="m -1870.7197,-308.41016 c 0,5.89342 -0.2597,4.1979 -0.215,7.30158 l 8.403,0"
           style="fill:none;stroke:#ffffff;stroke-width:2.83464575;stroke-linecap:butt;stroke-linejoin:miter;stroke-miterlimit:4;stroke-opacity:1;stroke-dasharray:none" />
        <path
           sodipodi:nodetypes="ccc"
           inkscape:connector-curvature="0"
           id="path24691"
           d="m -1879.724,-309.42057 0,45.41467 11.1464,0"
           style="fill:none;stroke:#ffffff;stroke-width:2.83464575;stroke-linecap:butt;stroke-linejoin:miter;stroke-miterlimit:4;stroke-opacity:1;stroke-dasharray:none" />
        <path
           sodipodi:nodetypes="cc"
           inkscape:connector-curvature="0"
           id="path24693"
           d="m -1852.711,-301.54789 10.6865,0"
           style="fill:none;stroke:#ffffff;stroke-width:2.83464575;stroke-linecap:butt;stroke-linejoin:miter;stroke-miterlimit:4;stroke-opacity:1;stroke-dasharray:none" />
        <path
           inkscape:connector-curvature="0"
           id="path24695"
           d="m -1858.4995,-264.03738 16.0792,0"
           style="fill:none;stroke:#ffffff;stroke-width:2.83464575;stroke-linecap:butt;stroke-linejoin:miter;stroke-miterlimit:4;stroke-opacity:1;stroke-dasharray:none" />
        <path
           sodipodi:nodetypes="ccc"
           inkscape:connector-curvature="0"
           id="path24697"
           d="m -1721.9584,-308.31818 0,190.30468 26.6477,0"
           style="fill:none;stroke:#ffffff;stroke-width:2.83464575;stroke-linecap:butt;stroke-linejoin:miter;stroke-miterlimit:4;stroke-opacity:1;stroke-dasharray:none" />
        <path
           sodipodi:nodetypes="ccc"
           inkscape:connector-curvature="0"
           id="path24699"
           d="m -1731.1494,-309.36978 0,191.66615 -13.9376,0"
           style="fill:none;stroke:#ffffff;stroke-width:2.83464575;stroke-linecap:butt;stroke-linejoin:miter;stroke-miterlimit:4;stroke-opacity:1;stroke-dasharray:none" />
        <path
           sodipodi:nodetypes="cccc"
           inkscape:connector-curvature="0"
           id="path24701"
           d="m -1748.2622,-103.88018 -127.1636,0 c 10e-5,45.0579 3e-4,65.85097 5e-4,110.90887 l -40.0191,0"
           style="fill:none;stroke:#ffffff;stroke-width:2.83464575;stroke-linecap:butt;stroke-linejoin:miter;stroke-miterlimit:4;stroke-opacity:1;stroke-dasharray:none" />
        <path
           sodipodi:nodetypes="cc"
           inkscape:connector-curvature="0"
           id="path24703"
           d="m -1915.4907,-41.94865 c 10.3526,0 39.717,0 39.717,0"
           style="fill:none;stroke:#ffffff;stroke-width:2.83464575;stroke-linecap:butt;stroke-linejoin:miter;stroke-miterlimit:4;stroke-opacity:1;stroke-dasharray:none" />
        <path
           sodipodi:nodetypes="cc"
           inkscape:connector-curvature="0"
           id="path24705"
           d="m -1929.7057,-42.06022 c -14.7153,0 -8.0521,0 -8.0521,0"
           style="fill:none;stroke:#ffffff;stroke-width:2.83464575;stroke-linecap:butt;stroke-linejoin:miter;stroke-miterlimit:4;stroke-opacity:1;stroke-dasharray:none" />
        <path
           sodipodi:nodetypes="cc"
           inkscape:connector-curvature="0"
           id="path24707"
           d="m -1928.7081,6.96082 c -14.4456,0 -10.7753,0 -10.7753,0"
           style="fill:none;stroke:#ffffff;stroke-width:2.83464575;stroke-linecap:butt;stroke-linejoin:miter;stroke-miterlimit:4;stroke-opacity:1;stroke-dasharray:none" />
        <path
           sodipodi:nodetypes="cc"
           inkscape:connector-curvature="0"
           id="path24709"
           d="m -1622.8778,6.91659 -10.5533,0"
           style="fill:none;stroke:#ffffff;stroke-width:2.83464575;stroke-linecap:butt;stroke-linejoin:miter;stroke-miterlimit:4;stroke-opacity:1;stroke-dasharray:none" />
        <path
           sodipodi:nodetypes="cc"
           inkscape:connector-curvature="0"
           id="path24711"
           d="m -1618.627,-42.72286 -14.9288,0"
           style="fill:none;stroke:#ffffff;stroke-width:2.83464575;stroke-linecap:butt;stroke-linejoin:miter;stroke-miterlimit:4;stroke-opacity:1;stroke-dasharray:none" />
        <path
           inkscape:connector-curvature="0"
           id="path24713"
           d="m -1644.7808,-40.85202 0,45.77305"
           style="fill:none;stroke:#ffffff;stroke-width:2.83464575;stroke-linecap:butt;stroke-linejoin:miter;stroke-miterlimit:4;stroke-opacity:1;stroke-dasharray:none" />
        <path
           sodipodi:nodetypes="cccc"
           inkscape:connector-curvature="0"
           id="path24715"
           d="m -1646.6606,-42.87043 -34.8274,0 0,-82.18555 -10.219,0"
           style="fill:none;stroke:#ffffff;stroke-width:2.83464575;stroke-linecap:butt;stroke-linejoin:miter;stroke-miterlimit:4;stroke-opacity:1;stroke-dasharray:none" />
        <path
           sodipodi:nodetypes="cc"
           style="fill:none;stroke:#ffffff;stroke-width:2.83464575;stroke-linecap:butt;stroke-linejoin:miter;stroke-miterlimit:4;stroke-opacity:1;stroke-dasharray:none"
           d="m -1829.5189,-301.54789 53.295,0"
           id="path24717"
           inkscape:connector-curvature="0" />
        <path
           sodipodi:nodetypes="cc"
           style="fill:none;stroke:#ffffff;stroke-width:2.83464575;stroke-linecap:butt;stroke-linejoin:miter;stroke-miterlimit:4;stroke-opacity:1;stroke-dasharray:none"
           d="m -1829.1219,-264.03738 51.59,0"
           id="path24719"
           inkscape:connector-curvature="0" />
        <path
           sodipodi:nodetypes="ccc"
           inkscape:connector-curvature="0"
           id="path24721"
           d="m -1750.5735,-312.65813 -26.513,0 0,208.11559"
           style="fill:none;stroke:#ffffff;stroke-width:2.83464575;stroke-linecap:butt;stroke-linejoin:miter;stroke-miterlimit:4;stroke-opacity:1;stroke-dasharray:none" />
        <path
           sodipodi:nodetypes="cc"
           style="fill:none;stroke:#ffffff;stroke-width:2.83464575;stroke-linecap:butt;stroke-linejoin:miter;stroke-miterlimit:4;stroke-opacity:1;stroke-dasharray:none"
           d="m -1606.5805,-308.86521 0,266.21023"
           id="path24723"
           inkscape:connector-curvature="0" />
        <path
           inkscape:connector-curvature="0"
           id="path24725"
           d="m -1745.087,-103.78294 13.8517,0 0,19.14473 49.5511,0"
           style="fill:none;stroke:#ffffff;stroke-width:2.83464575;stroke-linecap:butt;stroke-linejoin:miter;stroke-miterlimit:4;stroke-opacity:1;stroke-dasharray:none" />
        <text
           transform="matrix(0,-1,-1,0,0,0)"
           xml:space="preserve"
           style="font-size:20px;font-style:normal;font-variant:normal;font-weight:bold;font-stretch:normal;text-align:start;line-height:125%;letter-spacing:0px;word-spacing:0px;writing-mode:lr-tb;text-anchor:start;fill:#ffffff;fill-opacity:1;stroke:none;display:inline;font-family:Signika;-inkscape-font-specification:Signika Bold"
           x="76.375031"
           y="1510.5469"
           id="text24727"
           sodipodi:linespacing="125%"><tspan
             sodipodi:role="line"
             x="76.375031"
             y="1510.5469"
             id="tspan24729"
             style="font-size:24px;font-style:normal;font-variant:normal;font-weight:normal;font-stretch:normal;fill:#ffffff;fill-opacity:1;font-family:Signika;-inkscape-font-specification:Signika"><tspan
   style="font-size:24px;font-weight:bold;fill:#ffffff;fill-opacity:1;-inkscape-font-specification:Signika Bold"
   id="tspan24731">FAB</tspan>Money v. 0.3</tspan></text>
        <g
           style="fill:#ffffff;fill-opacity:1;stroke:none;display:inline"
           id="g24733"
           transform="matrix(0,-0.5123236,-0.5123236,0,-1190.9686,115.28164)">
          <path
             inkscape:connector-curvature="0"
             style="fill:#ffffff;fill-opacity:1;fill-rule:evenodd;stroke:none"
             d="m 269.691,643.382 c 0.414,-0.172 0.816,-0.359 1.203,-0.589 6.363,-3.7 7.028,-14.426 1.485,-23.973 -5.543,-9.539 -15.196,-14.281 -21.559,-10.586 -6.363,3.691 -7.024,14.426 -1.481,23.973 0.817,1.402 1.723,2.699 2.688,3.879 0,0 0,10.257 0,10.257 0,0 -13.473,-7.777 -13.473,-7.777 0,0 0,-49.207 0,-49.207 0,0 -8.472,-4.891 -8.472,-4.891 -4.512,8.434 -7.078,18.067 -7.078,28.305 0,32.559 25.894,59.051 58.207,60.059 0,0 0,-9.645 0,-9.645 0,0 -11.52,-6.648 -11.52,-6.648 0,0 0,-13.157 0,-13.157 z m 66.484,-58.839 c 0,0 -8.511,4.914 -8.511,4.914 0,0 0,15.386 0,15.386 0,0 -9.289,5.266 -9.289,5.266 -0.676,-0.789 -1.469,-1.465 -2.375,-1.992 -6.364,-3.696 -16.016,1.047 -21.559,10.586 -5.543,9.547 -4.879,20.277 1.481,23.976 6.363,3.692 16.015,-1.047 21.558,-10.59 1.199,-2.062 2.106,-4.179 2.727,-6.273 0,0 7.457,-4.316 7.457,-4.316 0,0 0,17.066 0,17.066 0,0 -42.453,24.508 -42.453,24.508 0,0 0,9.75 0,9.75 32.218,-1.106 58.003,-27.563 58.003,-60.051 0,-10.207 -2.554,-19.813 -7.039,-28.23 z m -34.359,1.585 c 0,-7.359 -8.949,-13.32 -19.984,-13.32 -2.461,0 -4.817,0.297 -7,0.84 0,0 -6.524,-3.707 -6.524,-3.707 0,0 14.805,-8.543 14.805,-8.543 0,0 42.578,24.582 42.578,24.582 3.231,-1.867 6.129,-3.539 8.484,-4.902 -10.605,-17.051 -29.503,-28.41 -51.062,-28.41 -21.531,0 -40.41,11.328 -51.024,28.339 2.438,1.411 5.344,3.086 8.524,4.922 0,0 13.183,-7.609 13.183,-7.609 0,0 8.52,4.937 8.52,4.937 -0.305,0.926 -0.469,1.883 -0.469,2.871 0,7.356 8.946,13.321 19.985,13.321 11.035,0 19.984,-5.965 19.984,-13.321 z"
             id="path24735" />
        </g>
        <path
           inkscape:connector-curvature="0"
           id="path24659"
           d="m -1746.7528,-141.42222 c 1.3515,0 2.4375,1.11725 2.4375,2.46875 0,1.3515 -1.086,2.4375 -2.4375,2.4375 -1.3515,0 -2.4687,-1.086 -2.4687,-2.4375 0,-1.3515 1.1172,-2.46875 2.4687,-2.46875 z m 0,1.09375 c -0.7523,0 -1.375,0.62269 -1.375,1.375 0,0.75231 0.6227,1.34375 1.375,1.34375 0.7524,0 1.3438,-0.59144 1.3438,-1.34375 0,-0.75231 -0.5914,-1.375 -1.3438,-1.375 z"
           style="fill:#ffffff;fill-opacity:1;stroke:none" />
      </g>
    </g>
  </g>
</svg>
